<?xml version="1.0" standalone="no"?>
<!DOCTYPE svg PUBLIC "-//W3C//DTD SVG 20010904//EN"
 "http://www.w3.org/TR/2001/REC-SVG-20010904/DTD/svg10.dtd">
<svg version="1.0" xmlns="http://www.w3.org/2000/svg"
 width="512.000000pt" height="512.000000pt" viewBox="0 0 512.000000 512.000000"
 preserveAspectRatio="xMidYMid meet">

<g transform="translate(0.000000,512.000000) scale(0.100000,-0.100000)"
fill="#000000" stroke="none">
<path d="M1990 1560 l0 -520 -299 0 -298 0 -6 -52 c-14 -111 -92 -214 -205
-266 -48 -22 -71 -27 -142 -27 -71 0 -94 5 -142 27 -106 49 -187 157 -203 271
l-7 47 -344 0 c-323 0 -344 -1 -344 -18 0 -10 5 -56 10 -102 30 -239 128 -441
299 -611 170 -171 372 -269 611 -299 56 -6 759 -10 2083 -10 2214 0 2040 -5
2090 64 l22 31 3 930 2 930 -22 44 c-14 28 -36 51 -58 63 -33 17 -103 18
-1542 18 l-1508 0 0 -520z"/>
</g>
</svg>
