<?xml version="1.0" standalone="no"?>
<!DOCTYPE svg PUBLIC "-//W3C//DTD SVG 20010904//EN"
 "http://www.w3.org/TR/2001/REC-SVG-20010904/DTD/svg10.dtd">
<svg version="1.0" xmlns="http://www.w3.org/2000/svg"
 width="600.000000pt" height="600.000000pt" viewBox="0 0 600.000000 600.000000"
 preserveAspectRatio="xMidYMid meet">

<g transform="translate(0.000000,600.000000) scale(0.100000,-0.100000)"
fill="#000000" stroke="none">
<path d="M2285 5093 c-79 -7 -262 -43 -350 -68 -235 -67 -458 -177 -652 -321
-100 -74 -333 -306 -405 -404 -190 -258 -308 -532 -370 -860 -32 -167 -32
-513 0 -680 61 -326 181 -605 368 -857 74 -100 307 -333 407 -407 331 -246
713 -379 1127 -393 249 -8 456 20 685 94 188 61 387 159 535 265 l55 39 3
-368 2 -369 262 -58 c145 -33 271 -61 280 -64 17 -4 18 48 18 1092 l0 1096
608 0 608 0 79 268 c43 147 80 273 83 280 3 9 -345 12 -1720 12 l-1724 0 -79
-267 c-43 -148 -80 -274 -83 -280 -3 -10 167 -13 832 -13 l836 0 0 -311 0
-312 -71 -84 c-166 -196 -412 -363 -661 -446 -171 -57 -267 -72 -478 -72 -211
0 -307 15 -478 72 -448 150 -807 514 -950 963 -57 180 -67 247 -67 460 0 213
10 280 67 460 143 449 502 813 950 963 171 57 267 72 478 72 211 0 307 -15
478 -72 314 -105 600 -327 781 -606 l43 -67 274 0 c172 0 274 4 274 10 0 39
-155 314 -246 437 -74 100 -307 333 -407 407 -283 210 -628 345 -982 386 -84
9 -321 11 -410 3z"/>
</g>
</svg>
